/* XPM */
static char * psychologomini_xpm[] = {
"46 21 2 1",
" 	c None",
".	c #002439",
"   .  . . ..                      .. . .  .   ",
"  ... ...... ..                .. ...... ...  ",
"  ................          ................  ",
"  ................          ................  ",
"  .................        .................  ",
"   .................      .................   ",
"   ....... ..........    .......... .......   ",
"   .....     ........     .......     .....   ",
"   ...         ......    ......         ...   ",
"   ..           .....    .....           ..   ",
"   ..            ...      ...            ..   ",
"   ...           ....    ....           ...   ",
"  ..........    .....    .....    ..........  ",
" ...........  .......    .......  ........... ",
"  ..................      ..................  ",
"   .................      .................   ",
"   .................      .................   ",
"   ................        ................   ",
"      ............          ............      ",
"       ........                ........       ",
"        .....                    .....        "};
