/* XPM */
static char * vocpicon_xpm[] = {
"32 32 451 2",
"  	c None",
". 	c #ECE6C4",
"+ 	c #DBD094",
"@ 	c #D6CA8A",
"# 	c #D5C880",
"$ 	c #D4C87D",
"% 	c #D5C87E",
"& 	c #D7CA84",
"* 	c #D8CD92",
"= 	c #DCD29C",
"- 	c #D8CE8E",
"; 	c #D6CB8C",
"> 	c #D4C77C",
", 	c #D6CA83",
"' 	c #DCD194",
") 	c #DACF93",
"! 	c #D6CA85",
"~ 	c #DACF8F",
"{ 	c #D7CB86",
"] 	c #CCC078",
"^ 	c #C8BC76",
"/ 	c #D6CA82",
"( 	c #DED49C",
"_ 	c #CDC280",
": 	c #CFC279",
"< 	c #9B925B",
"[ 	c #B8AD6C",
"} 	c #C1B471",
"| 	c #80784A",
"1 	c #383838",
"2 	c #0A0A09",
"3 	c #595858",
"4 	c #2F2D20",
"5 	c #201E13",
"6 	c #D3C67C",
"7 	c #48442B",
"8 	c #14130D",
"9 	c #18160F",
"0 	c #BFB471",
"a 	c #CABE76",
"b 	c #423B25",
"c 	c #D7CC92",
"d 	c #737272",
"e 	c #080807",
"f 	c #898887",
"g 	c #D5C881",
"h 	c #645E3A",
"i 	c #383521",
"j 	c #C0B470",
"k 	c #A0965E",
"l 	c #0E0D08",
"m 	c #504B2F",
"n 	c #46422A",
"o 	c #736C45",
"p 	c #766E44",
"q 	c #090604",
"r 	c #C1B571",
"s 	c #9B9A9A",
"t 	c #0C0C0A",
"u 	c #928C6C",
"v 	c #5C5636",
"w 	c #585233",
"x 	c #CCBF77",
"y 	c #D2C782",
"z 	c #B1BAA5",
"A 	c #9EAE9F",
"B 	c #BDBB86",
"C 	c #5B5536",
"D 	c #201E14",
"E 	c #928955",
"F 	c #A2985E",
"G 	c #4B472E",
"H 	c #D2C57B",
"I 	c #B8AC6B",
"J 	c #0E0A07",
"K 	c #0C0806",
"L 	c #857C4E",
"M 	c #D4C882",
"N 	c #252424",
"O 	c #766F46",
"P 	c #3D3924",
"Q 	c #867E4E",
"R 	c #D3C77E",
"S 	c #B8C6B9",
"T 	c #98B4C4",
"U 	c #809EAE",
"V 	c #749298",
"W 	c #BFBB7F",
"X 	c #2D2A1B",
"Y 	c #403C26",
"Z 	c #C8BB75",
"` 	c #D0C37A",
" .	c #585334",
"..	c #D3C67B",
"+.	c #3E3823",
"@.	c #0A0604",
"#.	c #4E482D",
"$.	c #4C462C",
"%.	c #D4C67C",
"&.	c #CEC38A",
"*.	c #41403D",
"=.	c #4F4A2E",
"-.	c #1F1E13",
";.	c #A49A60",
">.	c #C8C89A",
",.	c #BAD2DB",
"'.	c #9CB9CA",
").	c #789AAE",
"!.	c #5C8295",
"~.	c #748A7C",
"{.	c #C8BC75",
"].	c #12110C",
"^.	c #625C3A",
"/.	c #958C57",
"(.	c #C6BA74",
"_.	c #877E4F",
":.	c #040001",
"<.	c #383220",
"[.	c #9C915B",
"}.	c #2F2A1B",
"|.	c #D2C580",
"1.	c #706B4C",
"2.	c #2A2819",
"3.	c #BAAE6C",
"4.	c #BBB06E",
"5.	c #BBCABF",
"6.	c #D7E7EA",
"7.	c #A3C0CE",
"8.	c #668CA4",
"9.	c #426A7D",
"0.	c #315261",
"a.	c #9C9560",
"b.	c #090906",
"c.	c #797247",
"d.	c #BBB06D",
"e.	c #15110B",
"f.	c #080504",
"g.	c #7A7046",
"h.	c #C4B873",
"i.	c #14100B",
"j.	c #C6B974",
"k.	c #C8C090",
"l.	c #9C925C",
"m.	c #0D0D09",
"n.	c #867E4F",
"o.	c #383421",
"p.	c #C8BD7A",
"q.	c #AFC8D0",
"r.	c #EFF8F5",
"s.	c #AAC5D0",
"t.	c #56788D",
"u.	c #2B4653",
"v.	c #1E3641",
"w.	c #6E6E4E",
"x.	c #080806",
"y.	c #847C4D",
"z.	c #7F774A",
"A.	c #322D1C",
"B.	c #070403",
"C.	c #2C2819",
"D.	c #8E8553",
"E.	c #887F50",
"F.	c #0E0907",
"G.	c #BDB16E",
"H.	c #C0B88C",
"I.	c #DDD296",
"J.	c #BFB370",
"K.	c #0A0906",
"L.	c #423E27",
"M.	c #565132",
"N.	c #C6C085",
"O.	c #A0BECD",
"P.	c #DCEBEA",
"Q.	c #99B8C4",
"R.	c #426072",
"S.	c #21353E",
"T.	c #2D3A39",
"U.	c #6A6846",
"V.	c #0C0C08",
"W.	c #837B4D",
"X.	c #ADA265",
"Y.	c #060202",
"Z.	c #7B7248",
"`.	c #1C1910",
" +	c #100C08",
".+	c #1A150E",
"++	c #C3B980",
"@+	c #D8CC89",
"#+	c #222014",
"$+	c #C0BD88",
"%+	c #89ACC0",
"&+	c #A8C5D0",
"*+	c #7DA2B3",
"=+	c #395564",
"-+	c #3F463A",
";+	c #645E3B",
">+	c #1B1A10",
",+	c #746D44",
"'+	c #282316",
")+	c #726942",
"!+	c #C4B872",
"~+	c #322D1D",
"{+	c #040101",
"]+	c #3E3824",
"^+	c #C7BB74",
"/+	c #C5B977",
"(+	c #949292",
"_+	c #DACF90",
":+	c #0B0A07",
"<+	c #988F59",
"[+	c #BBBA85",
"}+	c #7096AE",
"|+	c #7DA3B9",
"1+	c #638CA2",
"2+	c #425C64",
"3+	c #777046",
"4+	c #908854",
"5+	c #ACA265",
"6+	c #3B3723",
"7+	c #514C30",
"8+	c #605938",
"9+	c #A59A60",
"0+	c #918754",
"a+	c #463F28",
"b+	c #80764A",
"c+	c #D2C47A",
"d+	c #C6BA76",
"e+	c #807E7F",
"f+	c #D6CA84",
"g+	c #6E6841",
"h+	c #16150E",
"i+	c #B2A768",
"j+	c #BDBA80",
"k+	c #578098",
"l+	c #628CA5",
"m+	c #567E96",
"n+	c #516E70",
"o+	c #B2A868",
"p+	c #C3B772",
"q+	c #C1B671",
"r+	c #6C6640",
"s+	c #CEC279",
"t+	c #A69B61",
"u+	c #B2A668",
"v+	c #A2965E",
"w+	c #D5C87D",
"x+	c #D2C67B",
"y+	c #D0C47A",
"z+	c #D5C87C",
"A+	c #7B7A7A",
"B+	c #CEC48C",
"C+	c #988E59",
"D+	c #2A2718",
"E+	c #C8BE7A",
"F+	c #446C7D",
"G+	c #4E768B",
"H+	c #497388",
"I+	c #436C7C",
"J+	c #86997F",
"K+	c #909B79",
"L+	c #C0B674",
"M+	c #AAA064",
"N+	c #060604",
"O+	c #A59B61",
"P+	c #CBBE77",
"Q+	c #C2B671",
"R+	c #D1C47A",
"S+	c #A19761",
"T+	c #625C40",
"U+	c #3F3C2E",
"V+	c #332F28",
"W+	c #38342A",
"X+	c #4D4835",
"Y+	c #655F42",
"Z+	c #727171",
"`+	c #D4C77D",
" @	c #4F6867",
".@	c #395A6B",
"+@	c #395C6D",
"@@	c #385C6C",
"#@	c #375E6B",
"$@	c #3E595D",
"%@	c #B0A567",
"&@	c #5E5837",
"*@	c #C9BC76",
"=@	c #C2B672",
"-@	c #504C37",
";@	c #211F1F",
">@	c #242222",
",@	c #2B2828",
"'@	c #302E2E",
")@	c #323030",
"!@	c #2E2C2D",
"~@	c #282627",
"{@	c #787777",
"]@	c #CBC082",
"^@	c #A89E62",
"/@	c #70765B",
"(@	c #2A4552",
"_@	c #28424E",
":@	c #26404C",
"<@	c #203844",
"[@	c #525842",
"}@	c #D0C27A",
"|@	c #716A42",
"1@	c #18170F",
"2@	c #CCBF78",
"3@	c #534E31",
"4@	c #CDC078",
"5@	c #423E30",
"6@	c #373536",
"7@	c #5A5858",
"8@	c #7A7878",
"9@	c #868484",
"0@	c #8A8888",
"a@	c #848282",
"b@	c #717070",
"c@	c #918F90",
"d@	c #B2AC88",
"e@	c #938B58",
"f@	c #344442",
"g@	c #1C313B",
"h@	c #1B3039",
"i@	c #2E3B38",
"j@	c #68623E",
"k@	c #AEA366",
"l@	c #B6AA6A",
"m@	c #13120B",
"n@	c #787148",
"o@	c #292718",
"p@	c #8A8155",
"q@	c #252323",
"r@	c #504E4F",
"s@	c #908E8E",
"t@	c #A5A4A4",
"u@	c #AAA8A8",
"v@	c #A8A6A6",
"w@	c #97948F",
"x@	c #CABE78",
"y@	c #6A6541",
"z@	c #414638",
"A@	c #434838",
"B@	c #5C5838",
"C@	c #787146",
"D@	c #5A5434",
"E@	c #080705",
"F@	c #0C0B07",
"G@	c #645E42",
"H@	c #4B494A",
"I@	c #9D9B9B",
"J@	c #A09E9E",
"K@	c #8C8563",
"L@	c #B8AE6C",
"M@	c #8A8151",
"N@	c #68623D",
"O@	c #6F6841",
"P@	c #242216",
"Q@	c #282618",
"R@	c #7A7350",
"S@	c #817F80",
"T@	c #757271",
"U@	c #ABA168",
"V@	c #CABD76",
"W@	c #8E8552",
"X@	c #9F965D",
"Y@	c #D2C67C",
"Z@	c #CFC27A",
"`@	c #898050",
" #	c #726A42",
".#	c #BFB474",
"+#	c #A4A29A",
"@#	c #524E47",
"##	c #BEB271",
"$#	c #D2C47B",
"%#	c #BAAE6D",
"&#	c #B9AD6C",
"*#	c #CBBF77",
"=#	c #C2B772",
"-#	c #D7CB88",
";#	c #858384",
">#	c #474339",
",#	c #BBB06F",
"'#	c #D4C886",
")#	c #D8CE92",
"!#	c #6E6C6D",
"~#	c #3A3731",
"{#	c #A19862",
"]#	c #D3C781",
"^#	c #A5A3A4",
"/#	c #696868",
"(#	c #2F2D2C",
"_#	c #686144",
":#	c #9F9663",
"<#	c #88847A",
"[#	c #A4A3A3",
"}#	c #A6A4A4",
"|#	c #767475",
"1#	c #383536",
"2#	c #2C2926",
"3#	c #6A6344",
"4#	c #AEA468",
"5#	c #D6C87D",
"6#	c #D4C87C",
"7#	c #D6C97D",
"8#	c #8C8456",
"9#	c #413D2F",
"0#	c #232121",
"a#	c #363435",
"b#	c #7E7C7C",
"c#	c #535152",
"d#	c #302D2E",
"e#	c #343129",
"f#	c #5B563C",
"g#	c #7C744E",
"h#	c #8E8658",
"i#	c #958C5B",
"j#	c #928A5A",
"k#	c #867E53",
"l#	c #6C6646",
"m#	c #464131",
"n#	c #262320",
"o#	c #221F1F",
"p#	c #272425",
"q#	c #383637",
"r#	c #696768",
"s#	c #575556",
"t#	c #3A3838",
"u#	c #2C2A2A",
"v#	c #262424",
"w#	c #222020",
"x#	c #282526",
"y#	c #424041",
"z#	c #666565",
"A#	c #959393",
"B#	c #A9A7A7",
"C#	c #999697",
"D#	c #838081",
"E#	c #686667",
"F#	c #585656",
"G#	c #504E4E",
"H#	c #4E4C4C",
"I#	c #525050",
"J#	c #5D5B5C",
"K#	c #706E6F",
"L#	c #8B8989",
"M#	c #A4A2A2",
"N#	c #B0AEAE",
"O#	c #AAA9AA",
"P#	c #A3A2A2",
"Q#	c #A2A0A0",
"R#	c #AFADAE",
"                      . + @ # $ % & * =                         ",
"                  - ; > > > > > > > > > , '                     ",
"              ) ! > > > > > > > > > > > > > > ~                 ",
"            { > > > > > > > > > > > > > > ] ^ > / (             ",
"          _ > > > > > > > > : < [ > > > > } | > > > *           ",
"1 2 3   4 5 ] > > > > > > 6 7 8 9 0 > > > a b 6 > > > c         ",
"d e f g h i j > > > > > > k l m n o > > > p q r > > > $         ",
"s t u > v w x y z A B > > C D E F G H > I J K L > > > > M       ",
"  N O > P Q R S T U V W > X Y Z `  .x ..+.@.#.$.%.> > > > &.    ",
"  *.=.%.-.;.>.,.'.).!.~.{.].^...> /.(._.:.<.[.}.` > > > > |.    ",
"  1.2.3.5 4.5.6.7.8.9.0.a.b.c.> > ;.d.e.f.g.h.i.j.> > > > > k.  ",
"  l.m.n.o.p.q.r.s.t.u.v.w.x.y.> > z.A.B.C.D.E.F.G.> > > > > H.  ",
"I.J.K.L.M.N.O.P.Q.R.S.T.U.V.W.> > X.Y.}.Z.`. +.+G.> > > > > ++  ",
"@+` #+V.c.$+%+&+*+=+-+;+D.>+,+> > x '+)+!+~+{+]+^+> > > > > /+(+",
"_+%.n :+<+[+}+|+1+2+3+4+5+6+7+> > 6 8+9+6 0+a+b+c+> > > > > d+e+",
"f+> g+h+i+j+k+l+m+n+o+p+q+r+5 s+> > t+u+> {.v+j > w+x+s+y+z+0 A+",
"B+> C+D+h.E+F+G+H+I+J+K+L+M+N+O+> > P+Q+> > H R+S+T+U+V+W+X+Y+Z+",
"  `+j v : a  @.@+@@@#@$@%@{.D+&@%.*@> 6 > > =@-@;@>@,@'@)@!@~@{@",
"  ]@y+^@6 ^ /@(@_@:@<@[@^@}@|@1@2@3@R+> > 4@5@>@6@7@8@9@0@a@b@c@",
"  d@> y+> a e@f@g@h@i@j@k@R+l@m@n@o@j > > p@q@r@s@t@u@      v@  ",
"  w@x@> > 4@;.y@z@A@B@C@d...y+D@E@F@%@> > G@H@I@                ",
"  J@K@> > y+L@M@N@^.O@F x %.> k@P@Q@l@> > R@S@                  ",
"    T@U@> 6 V@5+W@n.X@p+Y@> > Z@`@ #V@> > .#+#                  ",
"    I@@###> $#*@%#&#^+R+> > > > *#=#6 > > > -#                  ",
"      ;#>#,#> %.6 6 > > > > > > > > > > > > > '#)#              ",
"        !#~#{#z+> > > > > > > > > > > > > > > > ]#              ",
"        ^#/#(#_#=@z+> > > > > > > > > > > > ..:#<#[#            ",
"          }#|#1#2#3#4#6 5#> > > > > 6#7#(.8#9#0#a#b#v@          ",
"              s@c#d#>@e#f#g#h#i#j#k#l#m#n#o#p#q#r#J@            ",
"                t@;#s#t#u#v#0#w#w#w#>@x#'@y#z#A#B#              ",
"                    v@C#D#E#F#G#H#I#J#K#L#J@u@                  ",
"                        M#N#O#P#Q#}#R#u@}#                      "};
