/* XPM */
static char * xvocp_xpm[] = {
"48 28 459 2",
"  	c None",
". 	c #D5473C",
"+ 	c #F28479",
"@ 	c #F38D82",
"# 	c #F0897F",
"$ 	c #F1877D",
"% 	c #D53F31",
"& 	c #E25E53",
"* 	c #C0271B",
"= 	c #A60800",
"- 	c #BF251C",
"; 	c #E36258",
"> 	c #F59288",
", 	c #ED7C71",
"' 	c #B9140A",
") 	c #B81103",
"! 	c #D9473B",
"~ 	c #A30701",
"{ 	c #990500",
"] 	c #9F0400",
"^ 	c #AF0E05",
"/ 	c #D24338",
"( 	c #D54438",
"_ 	c #B40E02",
": 	c #B10D03",
"< 	c #D84D42",
"[ 	c #A30600",
"} 	c #9C0901",
"| 	c #BD1C0A",
"1 	c #BA1806",
"2 	c #BB1603",
"3 	c #C41D07",
"4 	c #D0290E",
"5 	c #C31D09",
"6 	c #B30F03",
"7 	c #DE5247",
"8 	c #A00701",
"9 	c #9B0801",
"0 	c #D12E11",
"a 	c #D53012",
"b 	c #E44019",
"c 	c #DF3916",
"d 	c #C01907",
"e 	c #B91205",
"f 	c #E55E51",
"g 	c #AD1008",
"h 	c #9A0400",
"i 	c #D42F12",
"j 	c #D83213",
"k 	c #DB3615",
"l 	c #E8441C",
"m 	c #DD3615",
"n 	c #BC1506",
"o 	c #BA1405",
"p 	c #E86457",
"q 	c #B61D14",
"r 	c #970000",
"s 	c #ECDD86",
"t 	c #EDDF87",
"u 	c #EFE088",
"v 	c #F0E188",
"w 	c #EEE087",
"x 	c #EBDD86",
"y 	c #CFC375",
"z 	c #D52F12",
"A 	c #D63013",
"B 	c #E03A18",
"C 	c #EC481E",
"D 	c #B30E03",
"E 	c #BC1810",
"F 	c #960000",
"G 	c #F0E088",
"H 	c #F1E288",
"I 	c #F3E489",
"J 	c #F7E78B",
"K 	c #F2E389",
"L 	c #F4E58B",
"M 	c #FDEE91",
"N 	c #EFE188",
"O 	c #E8DA83",
"P 	c #A89D5F",
"Q 	c #D32F12",
"R 	c #D73113",
"S 	c #D83314",
"T 	c #E43F1A",
"U 	c #E43E19",
"V 	c #C6200B",
"W 	c #BD0F01",
"X 	c #AC3A30",
"Y 	c #840904",
"Z 	c #A63C21",
"` 	c #C2BF7C",
" .	c #D0C478",
"..	c #F0E187",
"+.	c #F2E287",
"@.	c #F5E58C",
"#.	c #E7D987",
"$.	c #C1B772",
"%.	c #BDB270",
"&.	c #E6D885",
"*.	c #F6E78D",
"=.	c #D4C981",
"-.	c #E7D986",
";.	c #F5E68B",
">.	c #FBEB8E",
",.	c #F7E78C",
"'.	c #CEC074",
").	c #D22E11",
"!.	c #D63113",
"~.	c #D93313",
"{.	c #E9441C",
"].	c #C01604",
"^.	c #D74538",
"/.	c #AF2E25",
"(.	c #250000",
"_.	c #2B1E10",
":.	c #C6B567",
"<.	c #E5DA84",
"[.	c #3A3723",
"}.	c #908751",
"|.	c #F5E588",
"1.	c #F3E389",
"2.	c #EADE8F",
"3.	c #E8DC8F",
"4.	c #F0E18B",
"5.	c #F2E388",
"6.	c #F6E78B",
"7.	c #D8CB80",
"8.	c #2D2A1D",
"9.	c #534D2E",
"0.	c #8A804B",
"a.	c #908753",
"b.	c #F2E289",
"c.	c #F8E98D",
"d.	c #E6D886",
"e.	c #433F27",
"f.	c #6D673F",
"g.	c #F9E98E",
"h.	c #F1E188",
"i.	c #F7E88C",
"j.	c #F9E98D",
"k.	c #EBDB85",
"l.	c #D63012",
"m.	c #DE3916",
"n.	c #EA461C",
"o.	c #E43E1D",
"p.	c #CE2E20",
"q.	c #9E0400",
"r.	c #4A0000",
"s.	c #282D1C",
"t.	c #E9DD86",
"u.	c #E0D382",
"v.	c #565132",
"w.	c #D0C273",
"x.	c #ECDF8E",
"y.	c #CBCFA4",
"z.	c #A3B7B4",
"A.	c #92A9A7",
"B.	c #A3AF92",
"C.	c #D4CD8C",
"D.	c #FDEC90",
"E.	c #857D50",
"F.	c #1A180D",
"G.	c #B7A960",
"H.	c #E6D67F",
"I.	c #8D834E",
"J.	c #D7CA7C",
"K.	c #FEEF93",
"L.	c #E3D687",
"M.	c #403D28",
"N.	c #0A0907",
"O.	c #33301F",
"P.	c #B9AD68",
"Q.	c #D22F12",
"R.	c #D73213",
"S.	c #E23D19",
"T.	c #EA461D",
"U.	c #C41E09",
"V.	c #B61507",
"W.	c #AF7644",
"X.	c #141911",
"Y.	c #9A9159",
"Z.	c #978E57",
"`.	c #817847",
" +	c #E8DB86",
".+	c #C5D0BB",
"++	c #C7D7D7",
"@+	c #99B7C7",
"#+	c #648CA4",
"$+	c #40677C",
"%+	c #4F6868",
"&+	c #BAB271",
"*+	c #423E27",
"=+	c #6A6134",
"-+	c #EDDD83",
";+	c #F7E88D",
">+	c #C2B66E",
",+	c #C2B770",
"'+	c #867F50",
")+	c #1A1910",
"!+	c #34311F",
"~+	c #C1B56D",
"{+	c #746D43",
"]+	c #4D4828",
"^+	c #F4E489",
"/+	c #F3E38A",
"(+	c #FCEC8F",
"_+	c #D12B0F",
":+	c #DD3716",
"<+	c #E33E19",
"[+	c #E13613",
"}+	c #DF5E30",
"|+	c #EFDE85",
"1+	c #555231",
"2+	c #3C3823",
"3+	c #413D26",
"4+	c #ADA05C",
"5+	c #CBC991",
"6+	c #B4C9D0",
"7+	c #DFE5DA",
"8+	c #96B3BF",
"9+	c #3D6376",
"0+	c #1B323C",
"a+	c #253536",
"b+	c #858153",
"c+	c #383420",
"d+	c #887E4A",
"e+	c #D2C475",
"f+	c #454128",
"g+	c #000000",
"h+	c #4C4729",
"i+	c #655F39",
"j+	c #756E43",
"k+	c #090906",
"l+	c #464124",
"m+	c #F4E58A",
"n+	c #F3E48A",
"o+	c #FDED8F",
"p+	c #BCB16B",
"q+	c #E4411C",
"r+	c #DF3A17",
"s+	c #E73A15",
"t+	c #EA8E4E",
"u+	c #F4ED90",
"v+	c #B5AA65",
"w+	c #17160F",
"x+	c #34301C",
"y+	c #DBC973",
"z+	c #AAB28E",
"A+	c #82A4BB",
"B+	c #9BB8C4",
"C+	c #6A90A5",
"D+	c #425C5F",
"E+	c #777246",
"F+	c #9F9254",
"G+	c #BBAF68",
"H+	c #5B5635",
"I+	c #5D5736",
"J+	c #EEDE85",
"K+	c #948A51",
"L+	c #615930",
"M+	c #D4C571",
"N+	c #B0A460",
"O+	c #3D3820",
"P+	c #38341C",
"Q+	c #A69A58",
"R+	c #FFF091",
"S+	c #E9DA84",
"T+	c #E3D581",
"U+	c #E2D480",
"V+	c #E8DA84",
"W+	c #F6E68B",
"X+	c #E2D380",
"Y+	c #EB6A59",
"Z+	c #D43117",
"`+	c #DC3011",
" @	c #DE7D43",
".@	c #F2EA8E",
"+@	c #EBDD83",
"@@	c #655E38",
"#@	c #7C723C",
"$@	c #F2E183",
"%@	c #A4A677",
"&@	c #456E84",
"*@	c #547D94",
"=@	c #49748A",
"-@	c #537379",
";@	c #A5A97F",
">@	c #B0B281",
",@	c #D2C67A",
"'@	c #B5A964",
")@	c #100F0A",
"!@	c #958C57",
"~@	c #FDED90",
"{@	c #F8E88E",
"]@	c #ECDD84",
"^@	c #D9CA73",
"/@	c #F1E289",
"(@	c #EDDD84",
"_@	c #E3D47F",
":@	c #B8AC68",
"<@	c #6D673E",
"[@	c #474328",
"}@	c #282516",
"|@	c #12120B",
"1@	c #110F0A",
"2@	c #252315",
"3@	c #423E25",
"4@	c #5A5533",
"5@	c #EE7B6F",
"6@	c #C0241A",
"7@	c #B11001",
"8@	c #CF2A10",
"9@	c #D93011",
"0@	c #CA4520",
"a@	c #E1C878",
"b@	c #F4E98D",
"c@	c #C3B568",
"d@	c #CABB6A",
"e@	c #C2B66C",
"f@	c #455A57",
"g@	c #2C4D5F",
"h@	c #2F4F5E",
"i@	c #2E4F60",
"j@	c #27485B",
"k@	c #4A5A4F",
"l@	c #BDB068",
"m@	c #E1D27F",
"n@	c #7E7545",
"o@	c #373321",
"p@	c #CABF78",
"q@	c #D9CA79",
"r@	c #D2C577",
"s@	c #474329",
"t@	c #030302",
"u@	c #B82118",
"v@	c #970200",
"w@	c #DA3516",
"x@	c #CE2A0E",
"y@	c #B75B30",
"z@	c #E4D883",
"A@	c #F6EA8D",
"B@	c #E9DA82",
"C@	c #9E965C",
"D@	c #5C5E40",
"E@	c #424A3A",
"F@	c #434938",
"G@	c #5F5E3C",
"H@	c #948B53",
"I@	c #CEC076",
"J@	c #E8DA85",
"K@	c #EBDB83",
"L@	c #928850",
"M@	c #4E492D",
"N@	c #292719",
"O@	c #8B8046",
"P@	c #F5E488",
"Q@	c #EDDD86",
"R@	c #332F1D",
"S@	c #C62C22",
"T@	c #960100",
"U@	c #A50F04",
"V@	c #D93013",
"W@	c #BE290F",
"X@	c #985830",
"Y@	c #D5C677",
"Z@	c #FAF092",
"`@	c #F4E68B",
" #	c #E0D17F",
".#	c #BAAC66",
"+#	c #A09457",
"@#	c #9F9357",
"##	c #B3A763",
"$#	c #CABE75",
"%#	c #E4D683",
"&#	c #F4E48B",
"*#	c #E9DA81",
"=#	c #968A4C",
"-#	c #665D2F",
";#	c #BDAF61",
">#	c #F2E38A",
",#	c #544F30",
"'#	c #CF3D32",
")#	c #A91105",
"!#	c #B8290E",
"~#	c #994422",
"{#	c #B49458",
"]#	c #D9CB7B",
"^#	c #FAEB8E",
"/#	c #EBDC86",
"(#	c #DACD7D",
"_#	c #DFD180",
":#	c #E9DA85",
"<#	c #EBDC84",
"[#	c #E7D880",
"}#	c #ECDD85",
"|#	c #DDCF7E",
"1#	c #D23D32",
"2#	c #9C0400",
"3#	c #DC3414",
"4#	c #D83816",
"5#	c #A7280E",
"6#	c #6D2110",
"7#	c #785533",
"8#	c #BAB06B",
"9#	c #EFE288",
"0#	c #FFEF90",
"a#	c #F5E58B",
"b#	c #F4E48A",
"c#	c #FFFA97",
"d#	c #DC5145",
"e#	c #9E0500",
"f#	c #9D0B02",
"g#	c #E6421B",
"h#	c #B9240C",
"i#	c #7D0100",
"j#	c #2E0602",
"k#	c #30311E",
"l#	c #756E42",
"m#	c #B0A664",
"n#	c #D7C97A",
"o#	c #E7D983",
"p#	c #EBDC85",
"q#	c #EFE087",
"r#	c #EADB85",
"s#	c #C4B86F",
"t#	c #978E55",
"u#	c #5E5936",
"v#	c #222013",
"w#	c #D94A3E",
"x#	c #A8100A",
"y#	c #9F0A02",
"z#	c #D93113",
"A#	c #C9220B",
"B#	c #AA0F03",
"C#	c #1F1D12",
"D#	c #2E2B1A",
"E#	c #37331F",
"F#	c #3E3A23",
"G#	c #433F26",
"H#	c #403C24",
"I#	c #3B3822",
"J#	c #292617",
"K#	c #17160D",
"L#	c #CE3326",
"M#	c #A00700",
"N#	c #9B0800",
"O#	c #D22E12",
"P#	c #D42E12",
"Q#	c #D22C11",
"R#	c #D32C12",
"S#	c #CD280E",
"T#	c #BB1406",
"U#	c #B71004",
"V#	c #9D0800",
"W#	c #9D0A02",
"X#	c #D63114",
"Y#	c #C4220C",
"Z#	c #B31305",
"                                                                                                ",
"                                                                                                ",
"  . + @ # $ %                           & *                                                     ",
"  = - ; > , ' )                       ! ~ {                                                     ",
"    ] ^ / ( _ :                     < [ }                                                       ",
"    | 1 2 3 4 5 6                 7 8 9                                                         ",
"      0 a a b c d e             f g h                                                           ",
"        i j k l m n o         p q r               s s t u v v v w s x y                         ",
"          z A B C 4 D         E F         s w G v H H v I J J K v H H L M N O P                 ",
"          Q R S T U V W     X Y Z   `  ...H +.+.H v v @.#.$.%.&.K v v *.=.-.;.>.,.'.            ",
"            ).!.~.{.U ].^./.(._.:.<.[.}.|.1.2.3.4.5.6.7.8.9.0.a.5.b.c.d.e.f.g.h.H i.j.k.        ",
"              l.!.m.n.o.p.q.r.s.t.u.v.w.x.y.z.A.B.C.D.E.F.G.H.I.J.K.L.M.N.O.P.,.v v v ;.j.      ",
"              Q.A R.S.T.U.V.W.X.Y.Z.`. +.+++@+#+$+%+&+*+=+-+;+>+,+'+)+!+~+{+]+^+K v v v /+(+    ",
"                _+R.:+<+[+}+|+1+2+3+4+5+6+7+8+9+0+a+b+c+d+J ;.e+f+g+h+i+j+k+l+^+m+n+m+m+n+o+p+  ",
"                  q+r+k s+t+u+v+w+x+y+z+A+B+C+D+E+F+G+H+I+n+n+J+K+L+M+N+O+P+Q+R+n+S+T+U+V+W+X+  ",
"                Y+Z+_+i `+ @.@+@@@#@$@%@&@*@=@-@;@>@,@'@)@!@~@{@]@^@/@n+(@_@:@<@[@}@|@1@2@3@4@  ",
"              5@6@7@8@R 9@0@a@b@c@d@1.e@f@g@h@i@j@k@l@m@n@o@d.p@q@I v ,.r@s@t@                  ",
"              u@v@    w@j x@y@z@A@v K B@C@D@E@F@G@H@I@J@K@L@M@N@O@P@m+Q@R@                      ",
"            S@T@U@      z V@W@X@Y@Z@`@m+ #.#+#@###$#%#v &#*#=#-#;#H >#K ,#                      ",
"          '#h )#        Q R R.!#~#{#]#b@^#/#(#J._#:#H v v /@<#[#}#v v ;.|#                      ",
"        1#2#U@            ).R 3#4#5#6#7#8#9#0#o+i.a#n+1./@K m+L n+n+n+b#(+c#>.]#                ",
"      d#e#f#                i R m g#h#i#j#k#l#m#n#o#p#t q#v /@v q#s r#U+s#t#u#v#                ",
"    w#x#y#                    A R R z#A#B#        C#D#E#F#3@G#H#I#R@J#K#                        ",
"  L#M#N#                      O#P#Q#R#S#T#U#                                                    ",
"  V#W#                          O#X#X#X#Y#Z#                                                    ",
"                                                                                                ",
"                                                                                                ",
"                                                                                                "};
