/* XPM */
static char * vocplogo_xpm[] = {
"48 24 405 2",
"  	c None",
". 	c #D4C77C",
"+ 	c #D6C97D",
"@ 	c #D7C97D",
"# 	c #D5C87C",
"$ 	c #D5C87D",
"% 	c #D9CC7F",
"& 	c #DDD081",
"* 	c #D2C57B",
"= 	c #CFC279",
"- 	c #DCCF81",
"; 	c #D8CB7E",
"> 	c #CABD76",
", 	c #B8AD6C",
"' 	c #D7CA7E",
") 	c #050504",
"! 	c #4F4A2F",
"~ 	c #6B643F",
"{ 	c #A69C61",
"] 	c #D5C77B",
"^ 	c #D5C77C",
"/ 	c #DACC7F",
"( 	c #7E764A",
"_ 	c #33301E",
": 	c #2B291A",
"< 	c #67613D",
"[ 	c #C6BA75",
"} 	c #D9CB7F",
"| 	c #D8CA7E",
"1 	c #C9BC75",
"2 	c #4C442B",
"3 	c #C4B873",
"4 	c #D1C57B",
"5 	c #030302",
"6 	c #060605",
"7 	c #000000",
"8 	c #D3C77C",
"9 	c #C5B974",
"0 	c #1E1C12",
"a 	c #090805",
"b 	c #7F784A",
"c 	c #D6C87A",
"d 	c #D7C878",
"e 	c #D4C87E",
"f 	c #D3C77F",
"g 	c #DACA7B",
"h 	c #D6C87C",
"i 	c #C5B973",
"j 	c #423E27",
"k 	c #040403",
"l 	c #302D1C",
"m 	c #514C30",
"n 	c #232115",
"o 	c #403C28",
"p 	c #D1C47B",
"q 	c #D7C97E",
"r 	c #E2D584",
"s 	c #9A8F59",
"t 	c #0D0B07",
"u 	c #585033",
"v 	c #DED182",
"w 	c #D4C67B",
"x 	c #D7CB7E",
"y 	c #0C0B08",
"z 	c #A3995F",
"A 	c #DFD282",
"B 	c #CBBE77",
"C 	c #222015",
"D 	c #49452B",
"E 	c #B4A968",
"F 	c #D7C87B",
"G 	c #CDC88D",
"H 	c #BDC3A4",
"I 	c #A3B5B1",
"J 	c #94AAA8",
"K 	c #9AAA9A",
"L 	c #B2B589",
"M 	c #D1C67E",
"N 	c #DBCC7D",
"O 	c #DED082",
"P 	c #635D3A",
"Q 	c #948B57",
"R 	c #BFB470",
"S 	c #ACA265",
"T 	c #393622",
"U 	c #887F51",
"V 	c #D0C37A",
"W 	c #736A43",
"X 	c #080504",
"Y 	c #060403",
"Z 	c #140F0A",
"` 	c #A3985F",
" .	c #DBCE80",
"..	c #ACA167",
"+.	c #0B0A07",
"@.	c #060504",
"#.	c #908754",
"$.	c #E8D987",
"%.	c #7C7449",
"&.	c #0E0D09",
"*.	c #968C57",
"=.	c #DBCD7F",
"-.	c #C6CBA8",
";.	c #BAD0DA",
">.	c #AEC9DA",
",.	c #90B0C7",
"'.	c #799DB2",
").	c #688FA5",
"!.	c #577F95",
"~.	c #668380",
"{.	c #BAB578",
"].	c #CABC74",
"^.	c #201F14",
"/.	c #7B7448",
"(.	c #ACA164",
"_.	c #36311F",
":.	c #1A150E",
"<.	c #706640",
"[.	c #615938",
"}.	c #1D1910",
"|.	c #C2B772",
"1.	c #D8CB7F",
"2.	c #DCCF80",
"3.	c #CEC179",
"4.	c #867E4F",
"5.	c #454129",
"6.	c #3E3B25",
"7.	c #312E1D",
"8.	c #C2B46C",
"9.	c #CBCB99",
"0.	c #B7D1DF",
"a.	c #E5F1F3",
"b.	c #D8E8EA",
"c.	c #94B4C7",
"d.	c #688DA6",
"e.	c #4E758A",
"f.	c #365A6D",
"g.	c #20445A",
"h.	c #425855",
"i.	c #988F59",
"j.	c #12100B",
"k.	c #11100A",
"l.	c #DBCD80",
"m.	c #DACD80",
"n.	c #AA9F63",
"o.	c #B6AA6B",
"p.	c #7F764A",
"q.	c #030101",
"r.	c #1C1710",
"s.	c #897F50",
"t.	c #E3D484",
"u.	c #83794C",
"v.	c #978D58",
"w.	c #DDCF80",
"x.	c #AFA469",
"y.	c #3E3A25",
"z.	c #13120C",
"A.	c #918856",
"B.	c #17160E",
"C.	c #6E663F",
"D.	c #D5C77A",
"E.	c #ACBDB1",
"F.	c #B1CDDD",
"G.	c #ECF6F3",
"H.	c #DEEEEC",
"I.	c #88ABBC",
"J.	c #4C6D83",
"K.	c #2B4554",
"L.	c #1D323E",
"M.	c #213237",
"N.	c #2D3B38",
"O.	c #736E47",
"P.	c #12110B",
"Q.	c #15140D",
"R.	c #ADA366",
"S.	c #DDCF81",
"T.	c #9A905A",
"U.	c #1F1A11",
"V.	c #020101",
"W.	c #0F0B08",
"X.	c #514A2F",
"Y.	c #2A2418",
"Z.	c #4D472D",
"`.	c #100E09",
" +	c #938956",
".+	c #DCCE81",
"++	c #E0D283",
"@+	c #8A8151",
"#+	c #000001",
"$+	c #14130D",
"%+	c #A4995E",
"&+	c #D7CB83",
"*+	c #8BA7AF",
"=+	c #8FB2C8",
"-+	c #ADC9D3",
";+	c #A2C2CD",
">+	c #6D94A7",
",+	c #3C5A6B",
"'+	c #2A3C40",
")+	c #434737",
"!+	c #605C3A",
"~+	c #726B42",
"{+	c #242216",
"]+	c #080805",
"^+	c #9E955D",
"/+	c #D3C67B",
"(+	c #423C26",
"_+	c #0D0907",
":+	c #6E653F",
"<+	c #BCB06E",
"[+	c #998F5A",
"}+	c #17150D",
"|+	c #030202",
"1+	c #322D1D",
"2+	c #AFA366",
"3+	c #766E4B",
"4+	c #C0B470",
"5+	c #18170F",
"6+	c #46422A",
"7+	c #C8BB74",
"8+	c #D3C881",
"9+	c #6F909A",
"0+	c #658FAC",
"a+	c #7099B2",
"b+	c #6B96AF",
"c+	c #567E95",
"d+	c #3B5E6D",
"e+	c #707250",
"f+	c #A29355",
"g+	c #B0A261",
"h+	c #B5A867",
"i+	c #C3B872",
"j+	c #5D5736",
"k+	c #5A5535",
"l+	c #393320",
"m+	c #C1B470",
"n+	c #A99E63",
"o+	c #605937",
"p+	c #635A3A",
"q+	c #A1975E",
"r+	c #DED181",
"s+	c #DACD7F",
"t+	c #DCCE80",
"u+	c #E9DC87",
"v+	c #7A724D",
"w+	c #AFA569",
"x+	c #5E5837",
"y+	c #D7CA7D",
"z+	c #D9CA7C",
"A+	c #778B7C",
"B+	c #3D6985",
"C+	c #50788F",
"D+	c #537D94",
"E+	c #4A7489",
"F+	c #416A7D",
"G+	c #64807A",
"H+	c #A2AE86",
"I+	c #9DA884",
"J+	c #9EA173",
"K+	c #CBBE75",
"L+	c #BBAF6D",
"M+	c #35321F",
"N+	c #0A0A06",
"O+	c #A1975F",
"P+	c #D3C67C",
"Q+	c #C5B873",
"R+	c #D6C97E",
"S+	c #D1C47A",
"T+	c #D6C87D",
"U+	c #B4A86B",
"V+	c #8E8458",
"W+	c #776F4C",
"X+	c #665F43",
"Y+	c #5C553E",
"Z+	c #564F3B",
"`+	c #58513C",
" @	c #605940",
".@	c #6A6345",
"+@	c #847A52",
"@@	c #4E4936",
"#@	c #3F3B26",
"$@	c #A99F63",
"%@	c #DACC80",
"&@	c #D4C578",
"*@	c #9A9869",
"=@	c #355461",
"-@	c #2F5264",
";@	c #385A6A",
">@	c #365868",
",@	c #30576A",
"'@	c #2B5465",
")@	c #274A5A",
"!@	c #727759",
"~@	c #B9AC6A",
"{@	c #0A0906",
"]@	c #1F1C13",
"^@	c #C0B471",
"/@	c #B9AE6D",
"(@	c #C4B874",
"_@	c #8A8156",
":@	c #4D4635",
"<@	c #292423",
"[@	c #766E4C",
"}@	c #CEC279",
"|@	c #CDC178",
"1@	c #B4A867",
"2@	c #70714F",
"3@	c #324444",
"4@	c #223741",
"5@	c #1C333E",
"6@	c #1B313C",
"7@	c #1D3139",
"8@	c #2B3836",
"9@	c #504F35",
"0@	c #827949",
"a@	c #B4A969",
"b@	c #847C4D",
"c@	c #070704",
"d@	c #383421",
"e@	c #C1B672",
"f@	c #595435",
"g@	c #504B2F",
"h@	c #332F28",
"i@	c #6D6546",
"j@	c #DED081",
"k@	c #D0C47A",
"l@	c #BFB370",
"m@	c #9C9159",
"n@	c #766F44",
"o@	c #535238",
"p@	c #414535",
"q@	c #434634",
"r@	c #515035",
"s@	c #605A37",
"t@	c #70683F",
"u@	c #9C935C",
"v@	c #C6BA74",
"w@	c #D4C67C",
"x@	c #87804F",
"y@	c #090906",
"z@	c #E0D282",
"A@	c #79714C",
"B@	c #57503B",
"C@	c #BCB170",
"D@	c #E0D383",
"E@	c #BDB16F",
"F@	c #8B8250",
"G@	c #7A7145",
"H@	c #756E42",
"I@	c #7A7246",
"J@	c #8F8653",
"K@	c #AFA566",
"L@	c #C7BB75",
"M@	c #D4C87D",
"N@	c #8E8553",
"O@	c #383521",
"P@	c #292718",
"Q@	c #726B43",
"R@	c #B4A96C",
"S@	c #867D53",
"T@	c #C4B974",
"U@	c #CABE76",
"V@	c #BEB26F",
"W@	c #B3A869",
"X@	c #B1A768",
"Y@	c #C8BB75",
"Z@	c #D4C77D",
"`@	c #BAAE6C",
" #	c #A79D62",
".#	c #C2B672",
"+#	c #7F7650",
"@#	c #BFB471",
"##	c #DFD182",
"$#	c #544E3A",
"%#	c #756C4B",
"&#	c #A09661",
"*#	c #CDC179",
"=#	c #D9CB7E",
"-#	c #C6B974",
";#	c #988F5D",
">#	c #716948",
",#	c #524B38",
"'#	c #454032",
")#	c #6F6747",
"!#	c #887E54",
"~#	c #998F5D",
"{#	c #A39963",
"]#	c #B4A96B",
"^#	c #BEB270",
"/#	c #C2B673",
"(#	c #C5B874",
"_#	c #C7BA75",
":#	c #C8BB76",
"<#	c #C1B572",
"[#	c #BCB06F",
"}#	c #B2A76B",
"|#	c #A29762",
"1#	c #978D5D",
"2#	c #867D54",
"3#	c #686044",
"4#	c #3A342C",
"5#	c #2C2825",
"6#	c #2D2825",
"7#	c #2D2925",
"8#	c #2B2724",
"                                                                                                ",
"                                                                                                ",
"                                      . . . . . . . . . .                                       ",
"                        . . . . . . . . . . . + @ # . . . . . . $ % .                           ",
"                    . . . . . . . . . . . + & * = - ; . . . . $ > , ' . . .                     ",
"  ) )         ! ~ { % . . ] ] ^ . . . . / $ ( _ : < [ } . . . | 1 2 3 ; . . . . 4               ",
"  5 6 7   8 9 0 a b + c d e f @ g h . } i j k l m n o p q . | r s t u v # . . . . w x           ",
"    7 y z A B C D E F G H I J K L M N O P 7 _ Q R S T U - v V W X Y Z `  .. . . . . % ..        ",
"    +.@.#.$.%.&.*.=.-.;.>.,.'.).!.~.{.].^.k /.} % O { ( - (._.7 :.<.[.}.|.1.. . . . . 2.3.      ",
"    4.7 5.- 6.7.8.9.0.a.b.c.d.e.f.g.h.i.j.k.` l.. m.n.o.p.q.7 r.s.t.u.7 v.- . . . . . . w.x.    ",
"    * y.z.A.B.C.D.E.F.G.H.I.J.K.L.M.N.O.P.Q.R./ . S.T.U.V.W.X.Y.Z.W `.7  +.+. . . . . . + $     ",
"  . ++@+#+$+0 %+&+*+=+-+;+>+,+'+)+!+~+Q {+]+^+.+. + /+(+_+:+<+[+}+7 |+1+2+% . # $ $ $ $ # A 3+  ",
"  + % 4+5+7 6+7+8+9+0+a+b+c+d+e+f+g+h+i+j+7 k+++$ .  .2+l+m+ . .n+o+p+q+; A r+s+' $ + ; t+u+v+  ",
"  w+2.t+x+7 /.y+z+A+B+C+D+E+F+G+H+I+J+K+L+M+N+O+v P+% ; { Q+R+# + S+h T+U+V+W+X+Y+Z+`+ @.@+@@@  ",
"    # ++{ #@$@%@&@*@=@-@;@>@>@,@'@)@!@~@q O+{@]@^@r /@3 % /+. . / (@_@:@<@                      ",
"    [@x + ^@}@+ |@1@2@3@4@5@6@7@8@9@0@a@* m.b@c@d@e@f@g@m.$ . s+x.h@                            ",
"      i@=.j@$ . k@l@m@n@o@p@q@r@s@t@u@v@w@+ q x@@.y@k _ B ' . z@A@                              ",
"        B@C@D@; P+3.E@z F@G@H@I@J@K@L@P+^ . + M@N@O@P@Q@V + . % R@                              ",
"            S@T@& % * U@V@W@X@/@Y@4 Z@. . . . + T+`@ #.#T+. . . ; #                             ",
"                +#@#' ##r+} ' + T+# . . . . . . # | } + . . . . . + ; & t+y+                    ",
"                    $#%#&#*#& ##& t+/ ; ; | ' ' ' | ; ; =#s+t+& ##t+-#;#>#,#                    ",
"                          '#)#!#~#{#]#^#/#(#_#:#:#[ (@<#[#}#|#1#2#3#4#                          ",
"                                          5#6#7#7#6#5#8#                                        ",
"                                                                                                "};
