/* XPM */
static char * xpm_xvocphax_xpm[] = {
"48 24 437 2",
"  	c None",
". 	c #C5BB78",
"+ 	c #BEB676",
"@ 	c #D1C57B",
"# 	c #D4C67C",
"$ 	c #C6BC78",
"% 	c #C1B877",
"& 	c #C7BD78",
"* 	c #CBC17A",
"= 	c #CBC079",
"- 	c #D0C47B",
"; 	c #D2C57B",
"> 	c #D4C77C",
", 	c #D5C87C",
"' 	c #D6C97C",
") 	c #D5C87D",
"! 	c #D9CB7F",
"~ 	c #D7CA7E",
"{ 	c #D6C87C",
"] 	c #D5C77C",
"^ 	c #D2C67C",
"/ 	c #CFC37B",
"( 	c #CBC179",
"_ 	c #C8BF7A",
": 	c #C9C37F",
"< 	c #CCC27A",
"[ 	c #DDD081",
"} 	c #BCB16E",
"| 	c #C7BB74",
"1 	c #D3C67B",
"2 	c #DCCF81",
"3 	c #D8CB7E",
"4 	c #CEC27B",
"5 	c #C8BE78",
"6 	c #050403",
"7 	c #030303",
"8 	c #2C2A1C",
"9 	c #5D5736",
"0 	c #C9BC75",
"a 	c #D7CA7D",
"b 	c #D6C779",
"c 	c #D8C878",
"d 	c #D9CA79",
"e 	c #D9CA7A",
"f 	c #D6C87B",
"g 	c #DBCE81",
"h 	c #A1975E",
"i 	c #433F27",
"j 	c #221F15",
"k 	c #2E2C1C",
"l 	c #867E4F",
"m 	c #DACC7F",
"n 	c #D6C97D",
"o 	c #C7BA74",
"p 	c #968C58",
"q 	c #D1C37A",
"r 	c #DACD80",
"s 	c #D7C97D",
"t 	c #C9BE78",
"u 	c #010506",
"v 	c #000001",
"w 	c #47432B",
"x 	c #CDC178",
"y 	c #CFC379",
"z 	c #1B1911",
"A 	c #454129",
"B 	c #C4B771",
"C 	c #D8CA7A",
"D 	c #CBC68B",
"E 	c #BABE9A",
"F 	c #B3B995",
"G 	c #B8B989",
"H 	c #CDC47F",
"I 	c #DACB7C",
"J 	c #DED082",
"K 	c #AAA064",
"L 	c #060603",
"M 	c #211E13",
"N 	c #81784C",
"O 	c #918956",
"P 	c #2F2C1D",
"Q 	c #9A905A",
"R 	c #DDCF82",
"S 	c #DBCD80",
"T 	c #BFB370",
"U 	c #15130C",
"V 	c #464128",
"W 	c #CBBF77",
"X 	c #B0A96D",
"Y 	c #000000",
"Z 	c #7C754A",
"` 	c #EDDF8B",
" .	c #A49960",
"..	c #11100A",
"+.	c #9D925A",
"@.	c #DCCE80",
"#.	c #BFC8AE",
"$.	c #AAC6D3",
"%.	c #92B2C8",
"&.	c #7C9FB5",
"*.	c #6A90A4",
"=.	c #6F8D92",
"-.	c #BEBB81",
";.	c #E5D582",
">.	c #555132",
",.	c #7E764A",
"'.	c #E2D584",
").	c #998F59",
"!.	c #6D6641",
"~.	c #544E31",
"{.	c #1D1B11",
"].	c #5B5535",
"^.	c #DBCD7F",
"/.	c #C4BA75",
"(.	c #2F2C1C",
"_.	c #201F14",
":.	c #D9CC7F",
"<.	c #615C39",
"[.	c #322F1E",
"}.	c #C8BB72",
"|.	c #C2CBAF",
"1.	c #C9DFEA",
"2.	c #D8E9EB",
"3.	c #9DBCCB",
"4.	c #6B93A9",
"5.	c #4C7489",
"6.	c #32586F",
"7.	c #405C5F",
"8.	c #A29A63",
"9.	c #292618",
"0.	c #17160E",
"a.	c #B4A96A",
"b.	c #D1C47A",
"c.	c #BBB06E",
"d.	c #E0D283",
"e.	c #7C7448",
"f.	c #1F1D12",
"g.	c #B5AB6B",
"h.	c #433F28",
"i.	c #645D3B",
"j.	c #E0D282",
"k.	c #9D955E",
"l.	c #D2C981",
"m.	c #8E8553",
"n.	c #665F3C",
"o.	c #1A1810",
"p.	c #787044",
"q.	c #CDC78B",
"r.	c #9FBDCC",
"s.	c #D2E5E9",
"t.	c #E8F4F2",
"u.	c #94B4C5",
"v.	c #466E81",
"w.	c #203B49",
"x.	c #1C313A",
"y.	c #253536",
"z.	c #676646",
"A.	c #242215",
"B.	c #1E1D13",
"C.	c #C3B873",
"D.	c #E4D685",
"E.	c #9B915B",
"F.	c #030302",
"G.	c #020101",
"H.	c #99905A",
"I.	c #B5AA6A",
"J.	c #15140C",
"K.	c #222115",
"L.	c #D1C57A",
"M.	c #DDD383",
"N.	c #D8CC7F",
"O.	c #DACF81",
"P.	c #DCCE81",
"Q.	c #CBBE77",
"R.	c #221F14",
"S.	c #020202",
"T.	c #1C1B11",
"U.	c #B2A564",
"V.	c #BFBF8D",
"W.	c #7EA3BB",
"X.	c #9ABACA",
"Y.	c #A1BFCD",
"Z.	c #7196AC",
"`.	c #365969",
" +	c #3A433A",
".+	c #5C593B",
"++	c #756D42",
"@+	c #9C915A",
"#+	c #4D482E",
"$+	c #0A0A07",
"%+	c #C0B471",
"&+	c #A2985F",
"*+	c #030202",
"=+	c #565132",
"-+	c #514C2F",
";+	c #5C5636",
">+	c #C6BC76",
",+	c #A5915B",
"'+	c #BFAA6A",
")+	c #A5925B",
"!+	c #CBBE76",
"~+	c #DED182",
"{+	c #5A5635",
"]+	c #C7BB75",
"^+	c #E2D384",
"/+	c #655F3C",
"(+	c #544F31",
"_+	c #D7C87A",
":+	c #BAB882",
"<+	c #527C95",
"[+	c #5F88A0",
"}+	c #638CA3",
"|+	c #537D93",
"1+	c #406575",
"2+	c #8F8F67",
"3+	c #BAB070",
"4+	c #B8B073",
"5+	c #C7BD77",
"6+	c #A59B61",
"7+	c #0A0906",
"8+	c #D2C67B",
"9+	c #D8CA7E",
"0+	c #403C26",
"a+	c #645E3A",
"b+	c #B8AD6C",
"c+	c #7D7649",
"d+	c #827A4C",
"e+	c #CEC67B",
"f+	c #846942",
"g+	c #A90000",
"h+	c #7B3B25",
"i+	c #884D31",
"j+	c #980000",
"k+	c #766942",
"l+	c #B5AC6B",
"m+	c #C1B571",
"n+	c #4E4A2E",
"o+	c #857E4F",
"p+	c #E7D986",
"q+	c #BAAF6D",
"r+	c #3C3824",
"s+	c #958B57",
"t+	c #CABE77",
"u+	c #58706A",
"v+	c #2F566B",
"w+	c #3E6374",
"x+	c #3D6273",
"y+	c #3B6072",
"z+	c #446876",
"A+	c #4E6C71",
"B+	c #607063",
"C+	c #7C744A",
"D+	c #6F6942",
"E+	c #C5B873",
"F+	c #CDC078",
"G+	c #B0A567",
"H+	c #E1D383",
"I+	c #C2B671",
"J+	c #898150",
"K+	c #44462C",
"L+	c #700C08",
"M+	c #A40000",
"N+	c #000102",
"O+	c #7E0000",
"P+	c #8E0000",
"Q+	c #050503",
"R+	c #020906",
"S+	c #000503",
"T+	c #BEB370",
"U+	c #E1D484",
"V+	c #CABE76",
"W+	c #CBBE75",
"X+	c #918C59",
"Y+	c #304649",
"Z+	c #1D3846",
"`+	c #1D3642",
" @	c #1D3542",
".@	c #172F3C",
"+@	c #213336",
"@@	c #66603E",
"#@	c #A79C60",
"$@	c #D1C47B",
"%@	c #595335",
"&@	c #A69D62",
"*@	c #766E45",
"=@	c #5E5837",
"-@	c #D0C37A",
";@	c #958C57",
">@	c #950000",
",@	c #980001",
"'@	c #510001",
")@	c #C40000",
"!@	c #4F0101",
"~@	c #2C0000",
"{@	c #670000",
"]@	c #2E2B1B",
"^@	c #E5D787",
"/@	c #D8CB7F",
"(@	c #CEC179",
"_@	c #B0A566",
":@	c #80794C",
"<@	c #50513A",
"[@	c #3A4135",
"}@	c #3C4235",
"|@	c #494A34",
"1@	c #5D5737",
"2@	c #877E4E",
"3@	c #BCB16F",
"4@	c #565133",
"5@	c #100F0A",
"6@	c #13120B",
"7@	c #353220",
"8@	c #C6BA74",
"9@	c #C2B672",
"0@	c #B50001",
"a@	c #CC0000",
"b@	c #D10000",
"c@	c #B90100",
"d@	c #0D0101",
"e@	c #9F0101",
"f@	c #D90000",
"g@	c #1C1B10",
"h@	c #847C4D",
"i@	c #DFD283",
"j@	c #D6C97E",
"k@	c #B6AA6A",
"l@	c #9A9058",
"m@	c #82794A",
"n@	c #7E7448",
"o@	c #8A804E",
"p@	c #A1985F",
"q@	c #777046",
"r@	c #847C4E",
"s@	c #CEC279",
"t@	c #D6C87D",
"u@	c #7D7549",
"v@	c #570806",
"w@	c #BB0000",
"x@	c #1B0101",
"y@	c #790101",
"z@	c #980101",
"A@	c #4D0203",
"B@	c #D60000",
"C@	c #B20001",
"D@	c #0E0203",
"E@	c #100203",
"F@	c #9E945D",
"G@	c #D0C379",
"H@	c #E2D484",
"I@	c #C1B572",
"J@	c #C8BC75",
"K@	c #D2C47B",
"L@	c #D0C47A",
"M@	c #C2B874",
"N@	c #9F0F0A",
"O@	c #000202",
"P@	c #AA0101",
"Q@	c #6B0001",
"R@	c #AF0000",
"S@	c #B40001",
"T@	c #9C0001",
"U@	c #B00001",
"V@	c #680102",
"W@	c #3E0202",
"X@	c #200102",
"Y@	c #2A2819",
"Z@	c #7B7448",
"`@	c #A49A60",
" #	c #C5B974",
".#	c #DDCF81",
"+#	c #DDD082",
"@#	c #E9DD89",
"##	c #A6975F",
"$#	c #A30503",
"%#	c #390001",
"&#	c #370102",
"*#	c #BA0001",
"=#	c #1A0101",
"-#	c #640102",
";#	c #BE0000",
">#	c #9E0101",
",#	c #860001",
"'#	c #9B0001",
")#	c #A80000",
"!#	c #510101",
"~#	c #15130D",
"{#	c #4B462C",
"]#	c #887F50",
"^#	c #B3A869",
"/#	c #BDB16F",
"(#	c #9B925B",
"_#	c #6F6941",
":#	c #252216",
"<#	c #0B0000",
"[#	c #0C0101",
"}#	c #C10000",
"|#	c #CF0000",
"1#	c #D70000",
"2#	c #670101",
"3#	c #E50000",
"4#	c #840001",
"5#	c #080805",
"6#	c #18170E",
"7#	c #282618",
"8#	c #3A3622",
"9#	c #4A452B",
"0#	c #514D30",
"a#	c #555032",
"b#	c #4D482D",
"c#	c #49442B",
"d#	c #423E26",
"e#	c #32301D",
"f#	c #0F0E09",
"g#	c #740102",
"h#	c #A40101",
"i#	c #3A0102",
"j#	c #B90001",
"k#	c #690102",
"l#	c #850101",
"m#	c #C30001",
"n#	c #160101",
"o#	c #5E0102",
"p#	c #290001",
"q#	c #4F0102",
"r#	c #2D0101",
"s#	c #600202",
"t#	c #DB0000",
"u#	c #280102",
"v#	c #BD0000",
"w#	c #9F0001",
"x#	c #BF0001",
"y#	c #130101",
"z#	c #9A0101",
"A#	c #690101",
"B#	c #BA0000",
"C#	c #2A0101",
"D#	c #100101",
"                                                                                                ",
"                                                                                                ",
"                                  . + @ # # $ % &                                               ",
"                      * = - ; > , , ' ) ! ~ , { > ] ^ ; / ( _                                   ",
"              : < @ ) { { ] ] > > > [ ! } | [ ) > > > 1 2 3 , > 4 5                             ",
"  6 7       8 9 0 a b c d e f > > g h i j k l m ) > n o p q r > , s ] t                         ",
"  u v w x y z A B C D E F G H I J K L M N O P Q R > S T U V W S > > > n ) X                     ",
"    Y Z `  ...+.@.#.$.%.&.*.=.-.;.>.Y ,.s '.).!.~ ~ 2 ~.Y {.].W ~ > > > , ^./.                  ",
"    (._.:.<.[.}.|.1.2.3.4.5.6.7.8.9.0.a.m ) b.c.1 d.e.Y f.g.h.i.[ , > > > > j.k.                ",
"  l.m.Y n.o.p.q.r.s.t.u.v.w.x.y.z.A.B.C.3 > ) S D.E.F.G.H.I.J.K.L.M.N.~ O.n ) P.                ",
"  ^ Q.R.S.T.U.V.W.X.Y.Z.`. +.+++@+#+$+I.P.> n %+&+f.*+=+-+..Y ;+>+,+'+C.)+!+~+D.{+              ",
"  ]+^+/+Y (+_+:+<+[+}+|+1+2+3+4+5+6+7+h.8+9+r %+0+Y a+m b+c+d+e+f+g+h+i+j+k+l+m+n+              ",
"  o+p+q+r+s+@.t+u+v+w+x+y+z+A+B+g.s C+Y D+^+E+F+E+<.G+P.H+I+J+K+L+M+N+O+P+F.Q+R+S+              ",
"    T+U+T+V+~ W+X+Y+Z+`+ @.@+@@@#@$@) %@Y &@*@=@^+-@]+r ;@J.Y   >@,@'@)@!@    ~@{@              ",
"    ]@} ^@/@> (@_@:@<@[@}@|@1@2@3@1 /@b.4@5@6@7@8@m :.9@7+      0@a@b@c@d@    e@f@              ",
"      g@h@N.i@j@t+k@l@m@n@o@p@C.; > > ! (@q@A r@s@n t@; u@    v@w@x@y@z@    A@B@C@    D@    E@  ",
"          A F@G@H@r s@I@T J@K@) > > > > ~ n ]+L@t@> > ) [ M@  N@O+O@P@Q@    R@S@T@    U@V@W@S@X@",
"              Y@Z@`@ #.#H@2 :.~ n ) ) ) , n /@~ ) n ~ :.+#@###$#%#&#*#=#  -#;#>#,#    '#)#0@!#  ",
"                  G.~#{#]#^#| (@) /@m P..#.#S :.~ 8+Q./#(#_#:#<#    [#    }#|#1#2#    y@3#4#    ",
"                          5#6#7#8#A 9#0#4@a#b#c#d#e#R.f#Y Y             g#h#i#j#k#    l#m#n#    ",
"                                                                        o#p#  q#r#  s#t#S@      ",
"                                                                                  u#v#w#x#y#    ",
"                                                                                  z#A#u#B#C#    ",
"                                                                                  D#    d@      "};
